<svg width="33" height="32" viewBox="0 0 33 32" fill="none" xmlns="http://www.w3.org/2000/svg">
<path d="M22.7061 19.5413L21.9453 19.1638C22.1094 18.9372 22.2586 18.6956 22.3929 18.4389C23.3327 16.7324 23.5118 15.0562 23.5118 14.9807V10.9033H26.2568C27.2862 10.9033 28.0769 10.2388 28.0769 9.40821C28.0769 8.56253 27.2712 7.91317 26.2568 7.91317H24.6157C24.4815 6.84096 24.198 5.1798 23.7206 3.65455C22.9598 1.22322 21.9155 0 20.6175 0C20.0208 0 19.3942 0.271826 18.7676 0.815479C18.2455 1.26852 17.1564 1.76687 16.5149 1.78197H16.5C15.8137 1.78197 14.6352 1.25342 14.0981 0.800378C13.4566 0.286928 12.83 0.0151015 12.2333 0.0151015C10.9204 0.0151015 9.87613 1.23832 9.11528 3.65455C8.63788 5.1798 8.36935 6.84096 8.23508 7.91317H6.74322C5.71383 7.91317 4.92315 8.57763 4.92315 9.40821C4.92315 10.2539 5.72875 10.9033 6.74322 10.9033H9.47333V14.9807L9.48825 15.026C9.50316 15.1015 9.80154 16.7626 10.7862 18.454C10.9354 18.7107 11.0995 18.9523 11.2636 19.1789L10.3237 19.5564L3.56555 22.32L0 32H6.37025H16.5H26.6745H33L29.4344 22.2898L22.7061 19.5413ZM24.5411 26.7749V21.4139L25.6451 21.8669V26.7749H24.5411ZM23.5267 20.991V27.1675H9.51808V20.9759L10.4729 20.5833L11.1144 20.3266C11.6067 23.4526 16.0226 25.7933 16.2165 25.899L16.4552 26.0198L16.6939 25.899C16.8879 25.7933 21.3933 23.4073 21.811 20.236L22.3033 20.4776L23.5267 20.991ZM7.39964 21.8367L8.50362 21.3837V27.1524H7.39964V21.8367ZM16.5 21.9424C18.141 21.9424 19.5434 21.4592 20.6921 20.5229C20.3639 21.6404 19.4091 22.6673 18.5737 23.362C17.7233 24.0868 16.858 24.6154 16.4552 24.8419C16.0524 24.6154 15.1872 24.0868 14.3368 23.362C13.4118 22.5767 12.3377 21.429 12.1288 20.1605C13.3223 21.3384 14.7993 21.9424 16.5 21.9424ZM6.74322 9.86126C6.28074 9.86126 5.93761 9.61963 5.93761 9.40821C5.93761 9.19679 6.28074 8.95517 6.74322 8.95517H9.16004L9.20479 8.50212C9.60759 4.78716 10.7116 1.0571 12.2333 1.0571C12.5913 1.0571 12.9941 1.23832 13.4268 1.60076C14.1279 2.18971 15.5303 2.80887 16.4851 2.80887H16.5298C17.4548 2.79377 18.7527 2.15951 19.424 1.60076C19.8716 1.22322 20.2744 1.0269 20.6175 1.0269C22.1243 1.0269 23.2283 4.77206 23.6609 8.47192L23.7206 8.92496H26.2568C26.7193 8.92496 27.0624 9.16659 27.0624 9.37801C27.0624 9.58943 26.7193 9.83105 26.2568 9.83105H23.5267H9.47333H6.74322V9.86126ZM10.5027 14.8749V10.9033H22.5122V14.9051C22.4824 15.1015 22.2884 16.521 21.5127 17.9405C20.4236 19.9188 18.7378 20.9306 16.5149 20.9306C14.486 20.9306 12.8599 19.9339 11.6962 17.9556C10.8458 16.5512 10.5475 15.1317 10.5027 14.8749ZM1.47694 30.9731L4.37116 23.075L6.38517 22.2596V27.1675V28.2095V30.9731H1.47694ZM16.5 30.9731H7.39964V28.2095H9.533H25.66V30.9731H16.5ZM26.6745 30.9731V27.8018V27.1675V22.2747L28.6438 23.075L31.538 30.9731H26.6745Z" fill="white"/>
</svg>
