<svg width="25" height="34" viewBox="0 0 25 34" fill="none" xmlns="http://www.w3.org/2000/svg">
<path d="M9.74167 15.6579C13.0605 15.6579 15.7509 12.9674 15.7509 9.64863C15.7509 6.32981 13.0605 3.63937 9.74167 3.63937C6.42286 3.63937 3.73242 6.32981 3.73242 9.64863C3.73242 12.9674 6.42286 15.6579 9.74167 15.6579Z" stroke="white" stroke-miterlimit="10" stroke-linecap="round" stroke-linejoin="round"/>
<path d="M9.74287 18.4857C14.5714 18.4857 18.4857 14.5714 18.4857 9.74287C18.4857 4.91432 14.5714 1 9.74287 1C4.91432 1 1 4.91432 1 9.74287C1 14.5714 4.91432 18.4857 9.74287 18.4857Z" stroke="white" stroke-miterlimit="10" stroke-linecap="round" stroke-linejoin="round"/>
<path d="M24.036 31.209L17.7793 20.3724L14.6773 22.1634L20.934 33L24.036 31.209Z" stroke="white" stroke-miterlimit="10" stroke-linecap="round" stroke-linejoin="round"/>
<path d="M16.1064 21.3372L13.9619 17.4253" stroke="white" stroke-miterlimit="10" stroke-linecap="round" stroke-linejoin="round"/>
<path d="M15.9883 24.4714L19.1225 22.7276" stroke="white" stroke-miterlimit="10" stroke-linecap="round" stroke-linejoin="round"/>
</svg>
