<svg width="28" height="35" viewBox="0 0 28 35" fill="none" xmlns="http://www.w3.org/2000/svg">
<path d="M25.463 6.27084L20.8643 2.35298L13.3364 11.1891L17.9351 15.107L25.463 6.27084Z" stroke="white" stroke-miterlimit="10" stroke-linecap="round" stroke-linejoin="round"/>
<path d="M26.3975 3.61657L23.3262 1L21.6331 2.98731L24.7044 5.60388L26.3975 3.61657Z" stroke="white" stroke-miterlimit="10" stroke-linecap="round" stroke-linejoin="round"/>
<path d="M17.1819 14.4472L14.0965 11.8364L12.0898 14.8571L14.4417 16.8421L17.1819 14.4472Z" stroke="white" stroke-miterlimit="10" stroke-linecap="round" stroke-linejoin="round"/>
<path d="M13.3417 21.3085H1V23.3582H13.3417V21.3085Z" stroke="white" stroke-miterlimit="10" stroke-linecap="round" stroke-linejoin="round"/>
<path d="M2.18652 19.5608H11.9175" stroke="white" stroke-miterlimit="10" stroke-linecap="round" stroke-linejoin="round"/>
<path d="M27.0001 29.7233H6.39453V33.5639H27.0001V29.7233Z" stroke="white" stroke-miterlimit="10" stroke-linecap="round" stroke-linejoin="round"/>
<path d="M7.36426 23.3798C7.36426 23.3798 9.39245 29.3565 16.7069 29.3565C24.0213 29.3565 26.1142 22.301 26.2437 19.7981C26.3516 17.2952 25.4022 13.5409 21.4105 11.0596" stroke="white" stroke-miterlimit="10" stroke-linecap="round" stroke-linejoin="round"/>
</svg>
