<svg width="40" height="29" viewBox="0 0 40 29" fill="none" xmlns="http://www.w3.org/2000/svg">
<path d="M16.3709 29C16.1156 29 15.8753 29 15.62 29C14.6437 28.6996 13.9378 28.1289 13.6825 27.0926C13.5924 26.7321 13.3371 26.657 13.0367 26.5669C12.2557 26.3116 11.6399 25.8309 11.4446 25.0199C11.3245 24.5243 11.0391 24.344 10.6036 24.2089C9.19176 23.7283 8.59099 22.3465 9.23682 21.0098C9.43207 20.6043 9.43207 20.3639 9.11667 20.0185C7.90011 18.7118 7.08907 17.1649 6.74363 15.4076C6.5634 14.5215 5.97765 13.9808 5.37688 13.41C5.21167 13.2599 5.04646 13.1998 4.83619 13.335C4.35557 13.6353 4.04017 13.35 3.72477 13.0346C2.47817 11.788 1.2466 10.5564 0 9.32482C0 9.12957 0 8.9193 0 8.72405C2.76354 5.93048 5.52707 3.1369 8.27559 0.34333C8.80126 -0.182343 9.28188 -0.0621893 9.76249 0.418426C10.8289 1.48479 11.8952 2.53614 12.9616 3.6025C13.322 3.96296 13.5924 4.32342 13.292 4.84909C13.1719 5.05936 13.307 5.22458 13.4572 5.37477C13.7576 5.67515 14.073 5.96052 14.3584 6.27592C15.0192 6.99684 15.8152 7.20711 16.7314 6.92175C17.3172 6.74152 17.9029 6.69646 18.5187 6.7265C18.9543 6.75654 19.3598 6.69646 19.7653 6.54627C21.102 6.03561 22.4387 6.05063 23.7904 6.56129C24.9319 6.98182 25.6678 6.77156 26.4789 5.88542C26.7342 5.60006 26.8393 5.37477 26.569 5.04434C26.2836 4.68388 26.4038 4.32342 26.7042 4.03806C27.8607 2.86656 29.0322 1.69506 30.2036 0.538579C30.6392 0.103022 31.0898 0.118041 31.5253 0.553599C32.1111 1.13935 32.6968 1.7251 33.2826 2.29583C35.205 4.18825 37.1275 6.08067 39.05 7.97309C39.05 8.27348 39.05 8.57386 39.05 8.87425C37.8334 9.88053 36.7971 11.0821 35.6556 12.1635C35.2351 12.569 34.8296 13.0195 34.1837 12.5389C34.0786 12.4638 33.9284 12.4488 33.8383 12.554C33.0723 13.35 31.9909 13.9357 31.7206 15.1072C31.255 17.0898 30.3689 18.817 28.942 20.2588C28.6717 20.5292 28.5966 20.7995 28.7017 21.205C29.0171 22.3164 28.7017 23.1725 27.7405 23.8033C27.4251 24.0136 27.2449 24.2239 27.1998 24.6294C27.0346 26.0863 25.9082 26.8973 24.4963 26.5669C24.0758 26.4768 23.8205 26.5068 23.5351 26.8523C22.8292 27.6783 21.9281 27.8585 20.9668 27.3929C20.5463 27.1827 20.2609 27.1376 19.9605 27.5732C19.6752 27.9787 19.2246 28.2641 18.744 28.234C17.8428 28.1739 17.1369 28.6395 16.3709 29ZM17.4073 8.18336C15.5899 8.78413 14.2683 8.24344 13.1568 6.98182C13.0066 6.81661 12.8264 6.66642 12.6762 6.50121C12.3308 6.08067 12.0304 6.09569 11.6399 6.48619C9.94272 8.2134 8.21551 9.94061 6.4883 11.6378C6.05275 12.0733 6.08278 12.3737 6.51834 12.7342C7.37444 13.4251 7.79497 14.3563 8.0503 15.4076C8.39574 16.8945 9.1467 18.1862 10.2281 19.2976C10.4684 19.5379 10.6937 19.7031 11.0692 19.7031C12.2857 19.7181 13.0968 20.3189 13.4572 21.4904C13.5473 21.8058 13.6975 22.001 14.043 22.0912C14.9742 22.3164 15.5599 22.9172 15.8303 23.8334C15.9204 24.1188 16.0856 24.314 16.3709 24.4041C17.3772 24.7045 17.978 25.3653 18.1883 26.4017C18.2333 26.5969 18.2634 26.8222 18.5487 26.7922C18.774 26.7621 18.8942 26.5969 18.9693 26.4017C19.1195 25.9511 18.8641 25.6357 18.5788 25.3503C17.4824 24.2539 16.386 23.1575 15.2896 22.0611C15.1244 21.8959 14.9742 21.7457 14.824 21.5655C14.5686 21.2651 14.4935 20.9197 14.8089 20.6343C15.1093 20.3489 15.4548 20.394 15.7552 20.6493C15.9354 20.7845 16.0856 20.9497 16.2508 21.1149C17.7527 22.6168 19.2546 24.1188 20.7716 25.6207C20.9668 25.8159 21.1771 25.9962 21.4024 26.1463C21.7178 26.3416 22.0332 26.2965 22.2885 26.0412C22.5438 25.7859 22.5739 25.4555 22.3937 25.1401C22.2735 24.9298 22.0933 24.7496 21.913 24.5693C20.5313 23.1876 19.1495 21.8058 17.7677 20.424C17.5575 20.2138 17.3622 19.9885 17.197 19.7331C17.0318 19.4778 17.0468 19.1924 17.2721 18.9672C17.5124 18.7269 17.8128 18.6968 18.0982 18.862C18.3084 18.9972 18.4887 19.1774 18.6689 19.3577C20.4111 21.0849 22.1383 22.8271 23.8655 24.5693C24.0608 24.7646 24.256 24.9748 24.4813 25.125C24.8418 25.3804 25.2473 25.4104 25.5627 25.0499C25.8631 24.7195 25.788 24.3591 25.5177 24.0286C25.3524 23.8334 25.1722 23.6532 25.007 23.4879C23.1897 21.6706 21.3573 19.8533 19.54 18.0209C19.1495 17.6304 18.4887 17.1949 19.0894 16.5941C19.6752 16.0084 20.1258 16.6392 20.5313 17.0297C22.3186 18.7869 24.0908 20.5592 25.8631 22.3164C26.2386 22.6919 26.6892 22.9022 27.1097 22.4817C27.5452 22.0611 27.32 21.6105 26.9595 21.2351C24.5564 18.832 22.1383 16.4289 19.7503 14.0108C19.4198 13.6804 19.1946 13.6954 18.8792 14.0108C18.3234 14.5815 17.7677 15.1823 17.167 15.693C16.1607 16.534 14.7639 16.4289 13.8177 15.5127C12.9015 14.6116 12.7964 13.2599 13.5624 12.2235C13.8027 11.8631 14.1181 11.5627 14.4034 11.2623C15.3647 10.271 16.3259 9.29478 17.4073 8.18336ZM23.8806 16.0384C24.977 17.1649 26.0433 18.2763 27.1247 19.3727C27.4551 19.7031 27.6954 19.5079 27.9508 19.2525C29.0622 18.1261 29.8432 16.7894 30.1736 15.2424C30.3689 14.3412 30.7143 13.5302 31.4202 12.9144C31.7807 12.599 32.0811 12.2235 32.4265 11.9081C32.802 11.5777 32.847 11.2923 32.4565 10.9169C31.0597 9.55011 29.678 8.16834 28.3112 6.78657C27.9808 6.45615 27.7405 6.47117 27.4551 6.81661C26.2686 8.16834 24.8568 8.39363 23.1747 7.77784C21.7178 7.23715 20.2609 7.46244 19.1044 8.54382C17.6476 9.88053 16.2959 11.3224 14.8991 12.7192C14.6888 12.9294 14.5086 13.1848 14.4935 13.5002C14.4485 14.0108 14.5987 14.4464 15.0793 14.7017C15.65 15.0021 16.1457 14.8519 16.5812 14.4314C17.6175 13.41 18.6389 12.3887 19.6752 11.3674C19.9906 11.052 20.3811 10.7967 20.7866 11.1722C21.2071 11.5477 21.0269 11.9532 20.6965 12.2836C20.3661 12.6291 20.4712 12.8543 20.8016 13.1397C21.913 14.0859 23.0695 14.8819 24.6616 14.5065C24.977 14.4314 25.2623 14.6116 25.3675 14.927C25.4876 15.2875 25.3374 15.5878 25.007 15.738C24.6465 15.8432 24.2861 15.9183 23.8806 16.0384ZM11.715 4.42856C11.73 4.17323 11.5798 4.05308 11.4597 3.93292C10.8138 3.27208 10.138 2.64127 9.50716 1.96541C9.1467 1.58992 8.9064 1.68004 8.57597 1.99544C6.42823 4.18825 4.26546 6.38106 2.08767 8.54382C1.71219 8.9193 1.74223 9.18965 2.10269 9.53509C2.7335 10.1359 3.36431 10.7516 3.96507 11.3975C4.2955 11.7429 4.5358 11.7579 4.88125 11.4125C7.05903 9.18965 9.25184 6.99684 11.4296 4.80404C11.5498 4.68388 11.6399 4.53369 11.715 4.42856ZM30.7744 1.98042C30.7143 2.02548 30.5941 2.07054 30.504 2.16066C29.7981 2.86656 29.0922 3.57246 28.3863 4.27836C28.0709 4.59377 28.2211 4.8491 28.4764 5.10442C30.3839 7.01186 32.3063 8.9193 34.1988 10.8267C34.4841 11.1121 34.7094 11.1572 35.0098 10.8418C35.6556 10.1809 36.3015 9.52007 36.9773 8.88927C37.3678 8.51378 37.2927 8.22842 36.9473 7.898C35.0549 6.03561 33.1925 4.15821 31.3151 2.29583C31.1799 2.16066 31.0597 1.99544 30.7744 1.98042ZM12.1505 22.001C12.1205 21.4453 11.8201 21.1149 11.2644 21.1149C10.7087 21.1149 10.4083 21.4754 10.4083 22.0311C10.3933 22.6018 10.7387 22.9322 11.2794 22.9172C11.8201 22.9022 12.1205 22.5568 12.1505 22.001ZM13.6975 25.2152C14.1631 25.1701 14.5086 24.9148 14.5086 24.3741C14.5086 23.8184 14.1932 23.4729 13.6224 23.4879C13.0667 23.4879 12.7063 23.8033 12.7063 24.3591C12.7063 24.9298 13.0968 25.1851 13.6975 25.2152ZM16.7765 26.672C16.7464 26.1163 16.4611 25.7709 15.9054 25.7709C15.3647 25.7709 15.0042 26.1013 14.9892 26.642C14.9742 27.1977 15.3346 27.5281 15.8753 27.5431C16.416 27.5582 16.7314 27.2277 16.7765 26.672Z" fill="white"/>
</svg>
