<svg width="22" height="22" viewBox="0 0 22 22" fill="none" xmlns="http://www.w3.org/2000/svg">
<path d="M20.7778 15.2778C19.25 15.2778 17.7833 15.0333 16.4144 14.5811C15.9867 14.4467 15.51 14.5444 15.1678 14.8744L12.4789 17.5633C9.02 15.8033 6.18444 12.98 4.42444 9.50889L7.11333 6.80778C7.45555 6.49 7.55333 6.01333 7.41889 5.58556C6.96667 4.21667 6.72222 2.75 6.72222 1.22222C6.72222 0.55 6.17222 0 5.5 0H1.22222C0.55 0 0 0.55 0 1.22222C0 12.6989 9.30111 22 20.7778 22C21.45 22 22 21.45 22 20.7778V16.5C22 15.8278 21.45 15.2778 20.7778 15.2778Z" fill="white"/>
</svg>
