<svg width="10" height="10" viewBox="0 0 10 10" fill="none" xmlns="http://www.w3.org/2000/svg">
<path d="M9.44444 6.94444C8.75 6.94444 8.08333 6.83333 7.46111 6.62778C7.26667 6.56667 7.05 6.61111 6.89444 6.76111L5.67222 7.98333C4.1 7.18333 2.81111 5.9 2.01111 4.32222L3.23333 3.09444C3.38889 2.95 3.43333 2.73333 3.37222 2.53889C3.16667 1.91667 3.05556 1.25 3.05556 0.555556C3.05556 0.25 2.80556 0 2.5 0H0.555556C0.25 0 0 0.25 0 0.555556C0 5.77222 4.22778 10 9.44444 10C9.75 10 10 9.75 10 9.44444V7.5C10 7.19444 9.75 6.94444 9.44444 6.94444Z" fill="white"/>
</svg>
