<svg width="25" height="25" viewBox="0 0 25 25" fill="none" xmlns="http://www.w3.org/2000/svg">
<path d="M25 5.59452C25 9.62612 25 13.6606 25 17.6922C24.9944 17.7819 24.9861 17.8745 24.9861 17.9643C24.9833 19.3737 24.9806 20.7803 24.975 22.1898C24.975 22.2679 24.9583 22.3519 24.9305 22.4271C24.775 22.841 24.4916 23.1362 24.111 23.3301C24.0388 23.3677 23.9554 23.3938 23.8777 23.3938C21.0551 23.4053 18.2298 23.414 15.4073 23.4285C15.3434 23.4285 15.2684 23.4719 15.2211 23.5182C14.9822 23.7526 14.7739 24.0276 14.5155 24.2331C13.4793 25.0521 12.3569 25.2431 11.1512 24.6701C10.6012 24.4067 10.1622 23.9986 9.77609 23.5211C9.73719 23.4719 9.65385 23.4314 9.59273 23.4314C6.7702 23.4169 3.94488 23.4082 1.12235 23.3996C1.07234 23.3996 1.01678 23.4024 0.97233 23.3822C0.675075 23.2375 0.411157 23.0436 0.227803 22.7513C0.0944549 22.54 0.0138904 22.3171 0.0166685 22.0509C0.0250028 20.7572 0.0166685 19.4664 0.0138904 18.1727C0.0138904 18.0829 0.00555617 17.9903 0 17.9006C0 13.7822 0 9.66085 0 5.54242C0.00555617 5.48165 0.0166685 5.42087 0.0194466 5.35719C0.0472275 4.93464 0.0722302 4.51209 0.105567 4.08954C0.119458 3.91589 0.2028 3.77118 0.338927 3.6612C0.411157 3.60332 0.475053 3.53096 0.544505 3.46729C0.708412 3.311 0.897322 3.19234 1.11957 3.17208C1.45016 3.14314 1.78353 3.13446 2.1169 3.11999C2.23636 3.1142 2.35304 3.11999 2.48361 3.11999C2.48361 3.04185 2.48361 2.98975 2.48361 2.93765C2.49194 2.11281 2.50028 1.28797 2.51139 0.463126C2.51139 0.405242 2.5225 0.332887 2.55584 0.289474C2.69752 0.107141 2.86421 -0.00283844 3.11146 5.57431e-05C4.71997 0.0232092 6.32015 0.144765 7.88977 0.538374C9.51495 0.940666 11.0484 1.56002 12.3486 2.70033C12.4958 2.83057 12.5042 2.83057 12.6709 2.68297C13.6654 1.81182 14.8155 1.25034 16.0434 0.845158C17.9464 0.21712 19.905 -0.00573263 21.8913 0.0087383C22.2941 0.0116325 22.4164 0.133188 22.4664 0.547057C22.4719 0.584681 22.4719 0.6252 22.4747 0.662824C22.4886 1.424 22.5025 2.18517 22.5164 2.94634C22.5164 2.99843 22.5219 3.04763 22.5275 3.11131C22.5942 3.11131 22.6497 3.10841 22.7025 3.11131C23.0998 3.12867 23.4998 3.11709 23.8915 3.16919C24.3638 3.23286 24.8417 3.72777 24.9111 4.16479C24.9305 4.29213 24.9417 4.42237 24.9472 4.55261C24.9667 4.90281 24.9833 5.25011 25 5.59452ZM21.4829 1.03907C21.4135 1.03907 21.3635 1.03617 21.3135 1.03907C20.9384 1.05933 20.5634 1.0709 20.1911 1.09985C18.7938 1.21272 17.4158 1.44715 16.0851 1.9218C14.9767 2.3154 13.9404 2.85083 13.0848 3.7104C13.0098 3.78565 12.982 3.85801 12.982 3.9622C12.9848 5.53374 12.982 7.10528 12.9848 8.67972C12.9903 12.529 12.9959 16.3783 13.0042 20.2246C13.0042 20.2652 13.0098 20.3057 13.0153 20.3607C13.1126 20.3172 13.1931 20.2854 13.2737 20.2478C14.6127 19.614 16.0268 19.2464 17.4797 19.067C18.6882 18.9165 19.905 18.8499 21.1162 18.7457C21.2357 18.7341 21.3996 18.766 21.4579 18.6965C21.5191 18.627 21.4829 18.4592 21.4829 18.3347C21.4829 13.0442 21.4829 7.75358 21.4829 2.46301C21.4829 1.99704 21.4829 1.52819 21.4829 1.03907ZM11.993 20.3636C11.993 20.2912 11.993 20.2449 11.993 20.1957C11.9986 16.5201 12.0069 12.8445 12.0124 9.17173C12.0152 7.43522 12.0124 5.69871 12.0097 3.9622C12.0097 3.89274 11.993 3.79723 11.9486 3.75671C11.6985 3.52228 11.4513 3.27917 11.1762 3.07368C10.3234 2.43696 9.35937 2.04335 8.35926 1.74236C6.83131 1.28507 5.26725 1.10274 3.68374 1.03907C3.58651 1.03617 3.56151 1.07959 3.55595 1.16062C3.54762 1.34875 3.53373 1.53687 3.53373 1.72499C3.52539 3.94773 3.51706 6.17046 3.51428 8.39609C3.5115 11.7765 3.51428 15.1569 3.51428 18.5373C3.51428 18.7312 3.51428 18.7283 3.70041 18.7399C5.045 18.8094 6.39238 18.8788 7.72586 19.0872C8.88154 19.2695 10.015 19.5387 11.1096 19.9815C11.3985 20.0973 11.6791 20.2275 11.993 20.3636ZM22.5108 4.11559C22.5108 4.2082 22.5108 4.26898 22.5108 4.32976C22.5025 9.28461 22.4942 14.2366 22.4942 19.1914C22.4942 19.3824 22.4608 19.53 22.308 19.6371C22.2358 19.6892 22.158 19.7702 22.0802 19.7731C21.369 19.8108 20.6551 19.8252 19.9439 19.8629C18.5465 19.9381 17.1575 20.1031 15.7962 20.4446C14.785 20.6993 13.7988 21.0321 12.9375 21.6659C12.6458 21.8801 12.393 21.8714 12.0958 21.6804C11.7596 21.4604 11.4096 21.2579 11.0484 21.0871C9.84832 20.5227 8.56762 20.2565 7.27303 20.0683C5.85898 19.8629 4.43105 19.8223 3.00589 19.7789C2.73919 19.7702 2.50861 19.53 2.50861 19.2493C2.50028 14.3292 2.49472 9.40906 2.48639 4.48894C2.48639 4.40211 2.49194 4.31529 2.48083 4.22846C2.47528 4.19373 2.4336 4.13874 2.4086 4.13874C2.05301 4.14743 1.69463 4.15032 1.34182 4.18216C1.15568 4.19952 1.01956 4.38185 1.01956 4.54972C1.02789 10.3236 1.03623 16.0975 1.04456 21.8714C1.04456 22.3055 1.06956 22.3432 1.48905 22.3548C2.28914 22.3779 3.08923 22.3953 3.8921 22.3982C5.94233 22.404 7.99533 22.4011 10.0456 22.4011C10.1428 22.4011 10.2067 22.43 10.2706 22.5052C10.5095 22.7802 10.7456 23.0609 11.0068 23.3098C11.4124 23.6919 11.8735 23.9523 12.4486 23.8974C12.5764 23.8858 12.7097 23.9031 12.8375 23.8916C12.9598 23.88 13.0959 23.8742 13.2015 23.8163C13.4737 23.6629 13.7487 23.5095 13.9877 23.3069C14.2377 23.0957 14.4488 22.8352 14.66 22.5805C14.7711 22.4474 14.8822 22.3982 15.0489 22.3982C17.5631 22.3982 20.0772 22.3953 22.5914 22.3837C22.9609 22.3837 23.3304 22.3605 23.6999 22.3287C23.9193 22.3084 23.9471 22.2592 23.9499 22.0306C23.9582 21.1971 23.9666 20.3607 23.9666 19.5271C23.9693 14.5491 23.9721 9.57113 23.9749 4.59313C23.9749 4.3616 23.8527 4.19663 23.6304 4.17637C23.2665 4.14742 22.9025 4.13585 22.5108 4.11559Z" fill="white"/>
</svg>
